<?xml version="1.0" encoding="UTF-8"?>
<svg id="Laag_1" data-name="Laag 1" xmlns="http://www.w3.org/2000/svg" viewBox="0 0 346.37 138.66">
  <defs>
    <style>
      .cls-1 {
        fill: #326450;
      }
    </style>
  </defs>
  <path class="cls-1" d="M63.82,30.31c-.52-10.34-5.95-19.38-14.01-24.84-2.72-1.84-5.73-3.27-8.96-4.21h0C38.26.51,35.53.08,32.71,0c-.27,0-.55,0-.82,0-.26,0-.52,0-.78,0-5.82.15-11.26,1.86-15.91,4.72-4.23,2.61-7.81,6.17-10.42,10.4-.45.73-.88,1.48-1.27,2.25,0,.01-.01.03-.02.04-.33.65-.64,1.32-.93,1.99-.01.03-.02.05-.03.08,0,.02-.02.04-.02.06-.11.26-.21.52-.32.78-.02.05-.04.1-.06.15-.17.45-.34.91-.49,1.38-.16.48-.31.96-.44,1.46-.04.15-.09.31-.13.46h0c-.69,2.61-1.05,5.34-1.05,8.16,0,15.88,11.59,29.05,26.77,31.52,1.42.23,2.86.37,4.34.41.06,0,.11,0,.17,0h0c.2,0,.4,0,.61,0,.22,0,.44,0,.66,0,.06,0,.11,0,.16,0,1.59-.04,3.14-.19,4.66-.45,2.69-.46,5.25-1.25,7.66-2.34,0,0,0,0,0,0,.04-.02.08-.03.12-.05.87-.4,1.72-.83,2.55-1.3.29-.16.58-.33.86-.51.42-.26.84-.53,1.25-.81.04-.03.08-.05.11-.08,2.63-1.8,4.98-3.98,6.97-6.47,1.68-2.11,3.1-4.43,4.21-6.92,1.77-3.96,2.75-8.36,2.75-12.98,0-.54-.01-1.08-.04-1.62ZM47.31,43.24c-.05.06-.1.13-.14.19-.81,1.07-1.72,2.05-2.73,2.92-.18.16-.37.31-.55.46,0,0-.01.01-.02.02-1.25,1.01-2.64,1.86-4.13,2.53-.06.03-.12.05-.18.08-1.91.83-3.98,1.36-6.16,1.53-.34.03-.68.04-1.02.05-.16,0-.33,0-.49,0-.15,0-.3,0-.45,0-.43-.01-.87-.04-1.29-.08-7.26-.67-13.34-5.41-15.95-11.92-.88-2.19-1.36-4.59-1.36-7.09,0-2.21.38-4.33,1.07-6.31.65-1.85,1.57-3.57,2.73-5.12.14-.19.28-.37.43-.55,3.17-3.93,7.88-6.58,13.2-7.04h0c.39-.03.78-.06,1.17-.07.15,0,.3,0,.45,0,.16,0,.33,0,.49,0,6.07.14,11.44,3.11,14.84,7.65,2.32,3.09,3.72,6.91,3.8,11.05h0c0,.13,0,.26,0,.39,0,4.23-1.38,8.14-3.71,11.31ZM16.58,20.52c-1.14,1.53-2.05,3.23-2.7,5.06,0,.01.02.03.03.04.65-1.85,1.57-3.57,2.73-5.12-.02,0-.04.01-.05.02Z"/>
  <g>
    <path class="cls-1" d="M107.29,50.27c-.92-.91-2.28-.87-3.24.1-2.47,2.55-5.1,3.69-8.53,3.69-7.05,0-12.16-5.11-12.16-12.16s4.93-12,12-12c3.51,0,6.1,1.1,8.66,3.66.42.48.99.78,1.59.8.59.03,1.15-.21,1.6-.66l3.72-3.55c.38-.38,1.14-1.41.06-2.84-3.8-4.71-9.5-7.3-16.03-7.3-12.43,0-21.81,9.41-21.81,21.9s9.45,22.06,21.98,22.06c6.48,0,12.15-2.6,15.97-7.33,1.06-1.42.29-2.45-.09-2.83l-3.7-3.53Z"/>
    <path class="cls-1" d="M200.58,58.62h0c.36-.37,1.48-1.48.41-2.9l-2.28-3.09c-.28-.42-.67-.7-1.11-.79-.45-.09-.92.01-1.36.31-3.1,2.06-6.15,2.99-9.9,2.99-6.8,0-11.44-3.28-12.8-9.02h26.13c4.06,0,4.62-2.93,4.62-6.1,0-9.94-6.84-20-19.92-20-12.35,0-21.32,9.17-21.32,21.81s9.27,22.14,22.55,22.14c6.14,0,11.46-1.9,14.98-5.34ZM184.37,29.16c5.6,0,9.5,3.38,10.26,8.86h-21.2c1.12-5.48,5.27-8.86,10.94-8.86Z"/>
    <path class="cls-1" d="M236.44,20.01c-6.17,0-9.87,2.85-12,5.56l-.16-2.42c0-1.37-.72-2.15-1.99-2.15h-6.25c-1.17,0-1.99.85-1.99,2.07v37.84c0,1.22.82,2.07,1.99,2.07h6.58c1.19,0,1.99-.83,1.99-2.07v-21.88c0-5.62,3.37-9.12,8.79-9.12,5.14,0,7.97,3.24,7.97,9.12v21.88c0,1.22.82,2.07,1.99,2.07h6.5c1.2,0,2.07-.87,2.07-2.07v-23.53c0-10.55-6.08-17.37-15.48-17.37Z"/>
    <path class="cls-1" d="M144.88,78.82c-5.35,0-9.82,1.86-12.99,5.38v-32.35l5.03-5.52,11.88,15.55c.55.76,1.19,1.09,2.16,1.09h7.08c1.05,0,1.48-.53,1.65-.84.29-.54.21-1.23-.24-1.9l-16.04-21.25,13.77-15.21c.57-.64.75-1.34.49-1.92-.12-.26-.51-.86-1.61-.86h-7.73c-.86,0-1.49.29-2.02.94l-14.42,16.28V4.55c0-1.24-.8-2.07-1.99-2.07h-6.58c-1.17,0-1.99.85-1.99,2.07v115.17c0,1.22.82,2.07,1.99,2.07h6.01c1.17,0,1.99-.85,1.99-2.04l.09-2.88c3.22,3.87,7.85,5.91,13.47,5.91,11.73,0,20.25-9.24,20.25-21.98s-8.52-21.98-20.25-21.98ZM143.15,112.96c-6.78,0-11.34-4.85-11.34-12.08s4.56-12.24,11.34-12.24,11.67,5,11.67,12.16-4.8,12.16-11.67,12.16Z"/>
    <path class="cls-1" d="M210.28,79.81h-6.5c-1.17,0-1.99.85-1.99,2.07v21.88c0,5.54-3.45,9.12-8.79,9.12s-7.97-3.24-7.97-9.12v-21.88c0-1.24-.8-2.07-1.99-2.07h-6.58c-1.17,0-1.99.85-1.99,2.07v23.53c0,10.71,5.9,17.37,15.4,17.37,6.2,0,9.91-2.82,12.04-5.51l.12,2.44c.12,1.4.79,2.08,2.07,2.08h6.17c1.2,0,2.07-.87,2.07-2.07v-37.84c0-1.2-.87-2.07-2.07-2.07Z"/>
    <path class="cls-1" d="M246.89,79.89c-.92-.69-2.41-1.07-4.2-1.07-3.57,0-6.35,1.57-8.3,4.68l-.08-1.55c0-1.37-.72-2.15-1.99-2.15h-6.25c-1.17,0-1.99.85-1.99,2.07v37.84c0,1.22.82,2.07,1.99,2.07h6.58c1.19,0,1.99-.83,1.99-2.07v-21.72c0-2.18.57-9.28,7.97-9.28,1.14,0,1.91.11,2.76.39.85.21,1.49.13,1.97-.24.29-.23.63-.66.63-1.48v-5.26c0-.76-.13-1.55-1.08-2.24Z"/>
    <path class="cls-1" d="M294.69,79.81h-6c-1.19,0-1.99.83-1.99,2.04l-.08,2.42c-3.06-3.57-7.58-5.45-13.15-5.45-11.78,0-20,8.7-20,21.15s8.26,21.16,20.08,21.16c5.4,0,9.84-1.81,12.9-5.25v2.94c0,9.79-8.62,10.85-12.33,10.85s-7.47-1.01-10.7-2.94c-1.08-.6-2.26-.28-2.95.83l-1.92,3.59c-.51,1.14-.15,2.41.85,3.07,3.88,2.82,9.51,4.44,15.46,4.44s11.05-1.55,14.83-4.37c4.63-3.46,6.98-8.58,6.98-15.22v-37.18c0-1.24-.8-2.07-1.99-2.07ZM275.11,111.4c-6.78,0-11.34-4.59-11.34-11.42s4.66-11.42,11.34-11.42,11.09,4.62,11.09,11.5-4.46,11.34-11.09,11.34Z"/>
    <path class="cls-1" d="M330.89,78.82c-6.03,0-9.7,2.73-11.83,5.35v-20.81c0-1.24-.8-2.07-1.99-2.07h-6.58c-1.17,0-1.99.85-1.99,2.07v56.35c0,1.22.82,2.07,1.99,2.07h6.58c1.19,0,1.99-.83,1.99-2.07v-21.88c0-5.62,3.37-9.12,8.79-9.12,5.14,0,7.97,3.24,7.97,9.12v21.88c0,1.22.82,2.07,1.99,2.07h6.5c1.2,0,2.07-.87,2.07-2.07v-23.53c0-10.55-6.08-17.37-15.48-17.37Z"/>
  </g>
  <g>
    <path class="cls-1" d="M18.51,108.4h-1.16c-.23,0-.5.1-.5.55l-.02,1.49c-1.11-1.55-2.8-2.36-4.92-2.36-3.87,0-6.58,2.83-6.58,6.88s2.72,6.88,6.61,6.88c2.1,0,3.76-.79,4.86-2.28v1.65c0,1.3-.47,4.32-4.81,4.32-1.39,0-2.69-.35-3.76-1-.13-.08-.27-.1-.4-.06-.13.04-.24.13-.32.26l-.41.76c-.14.29-.05.57.25.76,1.18.81,2.94,1.3,4.72,1.3,5.13,0,6.96-3.22,6.96-6.23v-12.36c0-.35-.19-.55-.52-.55ZM16.77,115.01c0,2.85-1.79,4.7-4.56,4.7s-4.64-1.95-4.64-4.75,1.91-4.75,4.64-4.75,4.56,1.93,4.56,4.81Z"/>
    <path class="cls-1" d="M30.61,108.37c-.28-.19-.76-.3-1.31-.3-1.28,0-2.25.58-2.91,1.73l-.03-.83c0-.39-.18-.58-.55-.58h-1.14c-.33,0-.52.2-.52.55v12.5c0,.35.19.55.52.55h1.24c.33,0,.52-.2.52-.55v-7.79c0-.57.14-3.43,2.86-3.43.33,0,.62.04.9.13.24.07.42.05.54-.04.11-.08.16-.21.16-.39v-.95c0-.3-.08-.46-.29-.6Z"/>
    <path class="cls-1" d="M40.68,108.08c-3.97,0-6.96,3.06-6.96,7.12s2.99,7.12,6.96,7.12,6.93-3.06,6.93-7.12-2.98-7.12-6.93-7.12ZM45.38,115.2c0,2.88-1.98,4.97-4.7,4.97s-4.73-2.09-4.73-4.97,1.99-4.97,4.73-4.97,4.7,2.09,4.7,4.97Z"/>
    <path class="cls-1" d="M58.27,108.08c-3.95,0-6.82,2.97-6.82,7.07s2.95,7.18,7.18,7.18c1.95,0,3.67-.62,4.85-1.75.17-.17.42-.42.12-.79l-.46-.63c-.16-.2-.43-.23-.64-.06-1.12.85-2.26,1.24-3.71,1.24-2.84,0-4.73-1.59-5.08-4.26h9.79c.95,0,1.14-.59,1.14-1.55,0-4.23-3.2-6.45-6.36-6.45ZM62.55,114.22h-8.85c.33-2.51,2.05-4.07,4.54-4.07s4.13,1.59,4.31,4.07Z"/>
    <path class="cls-1" d="M75.58,108.08c-2.3,0-3.58,1.14-4.24,2.06l-.06-1.16c0-.39-.18-.58-.55-.58h-1.14c-.33,0-.52.2-.52.55v12.5c0,.35.19.55.52.55h1.24c.33,0,.52-.2.52-.55v-7.6c0-2.16,1.47-3.62,3.67-3.62,2.07,0,3.26,1.32,3.26,3.62v7.6c0,.45.27.55.5.55h1.27c.33,0,.52-.2.52-.55v-7.79c0-3.49-1.87-5.58-5.01-5.58Z"/>
    <path class="cls-1" d="M91.83,108.08c-3.95,0-6.82,2.97-6.82,7.07s2.95,7.18,7.18,7.18c1.95,0,3.67-.62,4.85-1.75.17-.17.42-.42.12-.79l-.46-.63c-.16-.2-.43-.23-.64-.06-1.12.85-2.26,1.24-3.71,1.24-2.84,0-4.73-1.59-5.08-4.26h9.79c.95,0,1.14-.59,1.14-1.55,0-4.23-3.2-6.45-6.36-6.45ZM87.26,114.22c.33-2.51,2.05-4.07,4.54-4.07s4.13,1.59,4.31,4.07h-8.85Z"/>
    <path class="cls-1" d="M109.1,108.37c-.28-.19-.76-.3-1.31-.3-1.28,0-2.25.58-2.91,1.73l-.03-.83c0-.39-.18-.58-.55-.58h-1.14c-.33,0-.52.2-.52.55v12.5c0,.35.19.55.52.55h1.24c.33,0,.52-.2.52-.55v-7.79c0-.57.14-3.43,2.86-3.43.33,0,.62.04.9.13.24.07.42.05.54-.04.11-.08.16-.21.16-.39v-.95c0-.3-.08-.46-.29-.6Z"/>
    <path class="cls-1" d="M31.4,90.34l-1.3-.54c-1.35-.57-2.17-.99-2.17-2.14,0-1.23,1.13-1.67,2.1-1.67s1.75.39,2.56,1.22c.12.12.27.24.45.24,0,0,0,0,.01,0,.19,0,.34-.14.43-.25l.44-.49c.23-.27.24-.57.03-.81-.96-1.21-2.42-1.9-4-1.9-2.45,0-4.23,1.56-4.23,3.71s1.76,3.18,3.08,3.73l1.57.65c1.22.5,1.98,1.05,1.98,2.19,0,1.7-1.73,1.89-2.48,1.89-1.23,0-2.19-.44-3.12-1.44-.15-.15-.32-.22-.49-.21-.15.01-.29.09-.39.23l-.41.55c-.21.31-.2.61.04.88.48.62,1.87,2.06,4.43,2.06,2.26,0,4.69-1.25,4.69-3.98,0-2.31-1.72-3.31-3.22-3.92Z"/>
    <path class="cls-1" d="M52.25,97.36v-12.5c0-.35-.19-.55-.52-.55h-1.16c-.33,0-.52.2-.52.55l-.04,1.64c-1.1-1.62-2.83-2.51-4.93-2.51-3.88,0-6.69,3-6.69,7.12s2.81,7.12,6.69,7.12c2.12,0,3.85-.87,4.93-2.45l.04,1.58c0,.35.19.55.52.55h1.16c.33,0,.52-.2.52-.55ZM49.98,91.17c0,2.94-1.87,4.91-4.64,4.91s-4.73-2.04-4.73-4.97,1.94-4.97,4.73-4.97,4.64,2.07,4.64,5.02Z"/>
    <path class="cls-1" d="M73.51,89.66v7.71c0,.35.19.55.52.55h1.24c.33,0,.52-.2.52-.55v-7.93c0-3.46-1.66-5.44-4.55-5.44-1.9,0-3.29.8-4.15,2.37-.73-1.55-2.08-2.37-3.91-2.37s-2.98.91-3.61,1.83l-.03-.93c0-.39-.18-.58-.55-.58h-1.14c-.33,0-.52.2-.52.55v12.5c0,.35.19.55.52.55h1.24c.33,0,.52-.2.52-.55v-7.71c0-2.2,1.11-3.51,2.97-3.51s2.83,1.28,2.83,3.51v7.71c0,.35.19.55.52.55h1.24c.33,0,.52-.2.52-.55v-7.71c0-2.16,1.19-3.51,3.1-3.51,2.23,0,2.7,1.91,2.7,3.51Z"/>
    <path class="cls-1" d="M92.28,96.48c.17-.17.42-.41.12-.79l-.46-.63c-.16-.2-.43-.23-.64-.06-1.12.85-2.26,1.24-3.71,1.24-2.84,0-4.73-1.59-5.08-4.26h9.79c.95,0,1.14-.59,1.14-1.55,0-4.23-3.2-6.45-6.36-6.45-3.95,0-6.82,2.97-6.82,7.07s2.95,7.18,7.18,7.18c1.95,0,3.67-.62,4.85-1.75ZM82.5,90.13c.33-2.51,2.05-4.07,4.54-4.07s4.13,1.59,4.31,4.07h-8.85Z"/>
    <path class="cls-1" d="M104.38,83.99c-2.3,0-3.58,1.14-4.24,2.06l-.06-1.16c0-.39-.18-.58-.55-.58h-1.14c-.33,0-.52.2-.52.55v12.5c0,.35.19.55.52.55h1.24c.33,0,.52-.2.52-.55v-7.6c0-2.16,1.47-3.62,3.67-3.62,2.07,0,3.26,1.32,3.26,3.62v7.6c0,.45.27.55.5.55h1.27c.33,0,.52-.2.52-.55v-7.79c0-3.49-1.87-5.58-5.01-5.58Z"/>
  </g>
</svg>